<svg width="512" height="512" viewBox="0 0 512 512" fill="none" xmlns="http://www.w3.org/2000/svg">
  <!-- Background with gradient -->
  <defs>
    <linearGradient id="bgGradient" x1="0%" y1="0%" x2="100%" y2="100%">
      <stop offset="0%" style="stop-color:#667eea;stop-opacity:1" />
      <stop offset="100%" style="stop-color:#764ba2;stop-opacity:1" />
    </linearGradient>
    <linearGradient id="kangarooGradient" x1="0%" y1="0%" x2="100%" y2="100%">
      <stop offset="0%" style="stop-color:#FF9500;stop-opacity:1" />
      <stop offset="100%" style="stop-color:#FF6B6B;stop-opacity:1" />
    </linearGradient>
    <filter id="shadow" x="-20%" y="-20%" width="140%" height="140%">
      <feDropShadow dx="0" dy="4" stdDeviation="8" flood-color="#000000" flood-opacity="0.3"/>
    </filter>
  </defs>
  
  <!-- Background circle -->
  <circle cx="256" cy="256" r="240" fill="url(#bgGradient)" stroke="#ffffff" stroke-width="8"/>
  
  <!-- Kangaroo body -->
  <ellipse cx="256" cy="320" rx="80" ry="100" fill="url(#kangarooGradient)" filter="url(#shadow)"/>
  
  <!-- Kangaroo head -->
  <circle cx="256" cy="200" r="60" fill="url(#kangarooGradient)" filter="url(#shadow)"/>
  
  <!-- Kangaroo ears -->
  <ellipse cx="230" cy="160" rx="15" ry="25" fill="url(#kangarooGradient)" transform="rotate(-15 230 160)"/>
  <ellipse cx="282" cy="160" rx="15" ry="25" fill="url(#kangarooGradient)" transform="rotate(15 282 160)"/>
  
  <!-- Kangaroo eyes -->
  <circle cx="240" cy="190" r="8" fill="#ffffff"/>
  <circle cx="272" cy="190" r="8" fill="#ffffff"/>
  <circle cx="240" cy="190" r="4" fill="#000000"/>
  <circle cx="272" cy="190" r="4" fill="#000000"/>
  
  <!-- Kangaroo nose -->
  <ellipse cx="256" cy="210" rx="6" ry="4" fill="#000000"/>
  
  <!-- Kangaroo arms -->
  <ellipse cx="200" cy="280" rx="20" ry="40" fill="url(#kangarooGradient)" transform="rotate(-30 200 280)"/>
  <ellipse cx="312" cy="280" rx="20" ry="40" fill="url(#kangarooGradient)" transform="rotate(30 312 280)"/>
  
  <!-- Kangaroo pouch -->
  <ellipse cx="256" cy="340" rx="40" ry="50" fill="#FFE4B5" stroke="#FF9500" stroke-width="3"/>
  
  <!-- Baby kangaroo in pouch -->
  <circle cx="256" cy="350" r="20" fill="url(#kangarooGradient)" opacity="0.8"/>
  <circle cx="250" cy="345" r="3" fill="#ffffff"/>
  <circle cx="262" cy="345" r="3" fill="#ffffff"/>
  
  <!-- Kangaroo legs -->
  <ellipse cx="220" cy="420" rx="25" ry="50" fill="url(#kangarooGradient)" transform="rotate(-10 220 420)"/>
  <ellipse cx="292" cy="420" rx="25" ry="50" fill="url(#kangarooGradient)" transform="rotate(10 292 420)"/>
  
  <!-- Kangaroo tail -->
  <path d="M 320 300 Q 380 280 400 320 Q 420 360 380 380 Q 340 400 320 380 Z" fill="url(#kangarooGradient)"/>
  
  <!-- Goal progress indicator -->
  <circle cx="256" cy="120" r="30" fill="#ffffff" opacity="0.9"/>
  <path d="M 256 90 A 30 30 0 0 1 286 120 A 30 30 0 0 1 256 150 A 30 30 0 0 1 226 120 A 30 30 0 0 1 256 90 Z" fill="none" stroke="#007AFF" stroke-width="6" stroke-linecap="round"/>
  <path d="M 256 90 A 30 30 0 0 1 286 120" fill="none" stroke="#007AFF" stroke-width="6" stroke-linecap="round"/>
  
  <!-- Star for achievement -->
  <path d="M 256 100 L 260 110 L 270 110 L 263 117 L 267 127 L 256 122 L 245 127 L 249 117 L 242 110 L 252 110 Z" fill="#FFD700"/>
</svg> 